# xmcd CD database file generated by Grip 3.2.0
# 
# Track frame offsets:
#       150
#       19477
#       37275
#       52210
#       66220
#       78660
#       95100
#       108702
#       133027
#       155237
#       174025
#       188300
#       203930
#       220117
#       235660
#       249007
#       261510
#       280942
# 
# Disc length: 3967 seconds
# 
# Revision: 5
# Processed by: cddbd v1.5.2PL0 Copyright (c) Steve Scherf et al.
# Submitted via: Grip 3.2.0
# 
DISCID=0f0f7d12
DTITLE=Various Artist - Ultimate Blues [CD1]
DYEAR=1994
DGENRE=Blues
TTITLE0=U2 and B.B. King - When Love Comes To Town
TTITLE1=Muddy Waters - I'm Your Hoochie Coochie Man
TTITLE2=John Lee Hooker and Bonnie Raitt - I'm In The Mood
TTITLE3=Howlin' Wolf - Smoke Stack Lightnin'
TTITLE4=Albert King - Born Under A Bad Sign
TTITLE5=Stevie Ray Vaughan - Pride And Joy
TTITLE6=Otis Rush - Somebody Have Mercy
TTITLE7=Rory Gallagher - Calling Card
TTITLE8=Gary Moore - Midnight Blues
TTITLE9=B.B. King - Into The Night
TTITLE10=Canned Heat - On The Road Again
TTITLE11=Robert Cray - Phone Booth
TTITLE12=Johnny Winter - Boot Hill
TTITLE13=Free - I'll Be Creeping
TTITLE14=Taj Mahal - Statesboro Blues
TTITLE15=Fleetwood Mac - Black Magic Woman
TTITLE16=Walter Trout Band - Sweet As A Flower
TTITLE17=John Hammond - I've Got Love If You Want It
EXTD=
EXTT0=U2 and BB King
EXTT1=Muddy Waters
EXTT2=John Lee Hooker and Bonnie Raitt
EXTT3=Howlin' Wolf
EXTT4=Albert King
EXTT5=Stevie Ray Vaughan
EXTT6=Otis Rush
EXTT7=Rory Gallagher
EXTT8=Gary Moore
EXTT9=BB King
EXTT10=Canned Heat
EXTT11=Robert Cray
EXTT12=Johnny Winter
EXTT13=Free
EXTT14=Taj Mahal
EXTT15=Fleetwood Mac
EXTT16=Walter Trout Band
EXTT17=John Hammond
PLAYORDER=
